<svg width="500" height="500" viewBox="0 0 500 500" fill="none" xmlns="http://www.w3.org/2000/svg">
<rect width="500" height="500" rx="80" fill="#F97415"/>
<g clip-path="url(#clip0_1_17)">
<path d="M60.0327 251.768C60.4903 246.498 59.3463 240.055 60.6047 233.668C62.0634 226.193 66.5539 222.384 74.4479 222.298C81.5983 222.241 88.7201 222.298 95.8705 222.27C106.367 222.27 114.919 214.394 116.521 203.884C117.608 196.752 116.893 189.621 117.121 182.49C117.207 179.855 117.522 177.249 118.409 174.815C120.639 168.743 124.987 165.908 131.479 165.708C138.001 165.479 144.522 166.309 151.014 165.049C159.166 163.474 166.259 155.226 166.431 146.863C166.545 140.935 166.087 134.978 167.06 129.05C168.032 123.179 171.321 119.943 177.328 119.914C183.878 119.885 190.427 119.971 196.948 119.885C206.187 119.771 213.166 115.962 216.998 107.198C217.971 104.993 218.485 102.759 218.543 100.296C218.714 94.8261 218.257 89.4134 219 83.9147C219.887 77.2132 224.206 74.292 230.813 74.1488C239.736 73.9197 248.66 73.9483 257.584 74.1488C266.336 74.3492 271.084 78.8742 271.227 87.6091C271.37 95.0839 271.942 102.587 270.683 110.062C269.711 115.819 266.393 119.513 260.701 120.63C254.094 121.947 247.43 121.174 240.795 121.317C237.677 121.375 234.674 121.632 231.785 122.892C223.634 126.472 219.916 133.031 219.258 141.594C219 145.03 219.229 148.496 219.201 151.961C219.201 161.24 213.766 166.911 204.499 167.14C199.151 167.254 193.802 167.226 188.454 167.14C175.669 166.996 167.26 176.361 167.117 188.447C167.031 194.662 167.088 200.848 167.117 207.062C167.117 218.518 172.294 223.616 183.592 223.759C189.398 223.845 195.232 222.957 200.981 224.389C209.962 226.594 216.312 234.613 216.34 243.806C216.369 249.878 216.369 255.978 216.34 262.049C216.312 272.503 207.216 281.553 196.805 281.724C190.999 281.81 185.222 281.638 179.387 282.068C172.036 282.641 168.147 287.882 167.374 294.469C166.631 300.912 166.259 307.557 167.746 314.029C170.349 325.37 178.615 331.785 190.227 331.785C195.118 331.785 199.98 331.613 204.843 331.814C214.453 332.244 218.6 336.826 219.172 345.962C219.515 351.289 218.571 356.673 219.887 361.971C222.289 371.622 229.783 377.465 239.736 377.636C246.258 377.751 252.75 377.15 259.3 378.123C266.107 379.154 270.111 382.734 270.855 389.579C271.713 397.512 271.913 405.531 270.826 413.435C269.453 423.43 264.277 424.375 257.527 424.719C248.403 425.177 239.222 424.948 230.069 424.776C222.862 424.633 218.8 419.936 218.543 411.717C218.4 407.908 218.428 404.07 218.543 400.261C218.914 387.66 208.704 378.811 197.206 379.011C191.857 379.097 186.48 378.839 181.16 379.068C170.578 379.527 166.717 375.088 166.402 364.262C166.259 358.821 167.117 353.322 165.773 347.909C163.771 339.833 155.591 333.303 147.296 333.246C142.777 333.217 138.258 333.36 133.739 333.217C122.127 332.845 117.836 327.976 117.207 316.778C116.978 312.368 117.179 307.958 117.179 303.547C117.15 289.801 109.17 284.015 96.9573 283.242C89.8355 282.784 82.6851 283.156 75.5634 283.156C65.2096 283.156 60.1185 278.03 60.0899 267.605C60.0327 262.679 60.0327 257.782 60.0327 251.768Z" fill="#F1F1F1"/>
<path d="M222.8 193.711C223.144 188.671 222.257 182.599 223.487 176.556C224.688 170.657 228.606 167.277 234.67 167.163C242.964 166.991 251.287 167.707 259.553 166.475C268.82 165.101 274.741 161.005 274.884 150.266C274.941 145.311 275.17 140.385 275.627 135.431C276.142 129.961 280.861 124.319 286.41 123.66C298.223 122.285 310.092 122.085 321.876 123.66C328.969 124.605 333.832 131.307 334.118 139.526C334.203 142.275 334.232 145.025 334.118 147.745C333.746 158.199 340.867 163.497 349.505 165.015C356.827 166.303 364.206 165.788 371.528 165.645C379.079 165.502 386.144 171.544 385.629 179.649C385.143 187.124 385.886 194.685 385.429 202.188C384.885 211.267 382.34 214.217 375.332 216.193C373.445 216.737 371.328 216.536 369.326 216.536C362.891 216.565 356.484 216.565 350.049 216.536C340.467 216.508 333.66 209.864 333.431 200.269C333.345 196.46 333.231 192.623 333.46 188.814C333.917 180.594 327.596 172.747 318.587 172.031C310.407 171.373 302.313 171.172 294.133 172.089C285.867 173.005 281.119 179.563 280.661 187.439C280.347 193.024 280.146 198.694 280.69 204.25C281.662 213.787 288.927 221.835 299.939 222.264C304.572 222.436 309.206 222.293 313.868 222.293C323.993 222.293 329.627 227.935 329.885 238.159C330.028 243.973 329.484 249.786 330.514 255.6C332.487 266.598 341.668 274.273 352.051 273.929C360.088 273.671 368.182 273.041 376.219 274.502C382.483 275.619 386.83 280.402 386.916 286.845C387.059 297.7 387.116 308.554 386.887 319.408C386.773 325.422 382.34 331.064 372.644 331.064C366.094 331.064 359.544 330.864 353.023 331.121C346.674 331.35 340.782 332.868 337.235 338.997C335.433 342.09 335.004 345.47 334.89 348.906C334.747 353.317 335.262 357.813 334.547 362.109C333.259 370.07 327.797 374.538 319.674 374.71C310.521 374.882 301.34 375.025 292.188 374.681C282.12 374.28 276.142 368.724 276.285 358.185C276.342 354.519 276.056 350.825 275.856 347.188C275.399 338.997 267.19 333.412 259.181 332.496C252.431 331.723 245.682 331.866 238.932 331.837C230.094 331.809 225.088 328.343 224.545 319.551C223.973 309.9 223.086 300.077 225.46 290.397C226.604 285.786 229.35 282.836 233.726 282.091C244.309 280.287 255.006 280.144 265.531 282.149C271.709 283.323 276.114 289.623 276.371 295.953C276.571 300.936 276.457 305.89 276.857 310.902C277.572 320.267 283.264 325.107 291.644 325.823C300.11 326.539 308.691 326.625 317.243 325.537C323.249 324.792 327.911 319.694 328.998 313.709C330.256 306.721 330.542 299.561 329.255 292.459C327.453 282.549 319.13 275.504 308.977 275.247C302.827 275.075 296.621 276.077 290.5 274.645C285.152 273.385 281.348 268.717 280.604 263.39C279.86 258.063 279.918 252.708 279.946 247.381C280.061 233.433 270.794 223.324 256.493 223.725C250.658 223.897 244.823 223.553 239.017 223.782C228.435 224.24 222.972 218.312 222.829 207.63C222.743 203.305 222.8 199.009 222.8 193.711Z" fill="#F1F1F1"/>
<path d="M416.919 227.992C418.464 227.992 420.008 228.106 421.553 227.963C430.104 227.19 438.542 233.634 439.572 243.085C440.172 248.583 440.144 254.225 439.343 259.81C438.256 267.628 432.536 273.528 423.755 274.33C418.492 274.817 413.144 274.817 407.795 274.015C400.588 272.955 393.952 267.141 393.494 257.834C393.237 252.535 393.437 247.18 393.866 241.825C394.467 234.607 403.934 227.39 410.484 227.935C412.629 228.164 414.774 227.992 416.919 227.992Z" fill="#F1F1F1"/>
</g>
<defs>
<clipPath id="clip0_1_17">
<rect width="380" height="351" fill="white" transform="translate(60 74)"/>
</clipPath>
</defs>
</svg>
