<?xml version="1.0" encoding="utf-8"?>
<!-- Generator: Adobe Illustrator 25.2.3, SVG Export Plug-In . SVG Version: 6.00 Build 0)  -->
<svg version="1.1" id="Capa_1" xmlns="http://www.w3.org/2000/svg" xmlns:xlink="http://www.w3.org/1999/xlink" x="0px" y="0px"
	 viewBox="0 0 132.86 122.56" style="enable-background:new 0 0 132.86 122.56;" xml:space="preserve">
<style type="text/css">
	.st0{fill:#C62628;}
	.st1{fill:#1A1A18;}
	.st2{opacity:0.22;}
	.st3{fill:url(#SVGID_1_);}
	.st4{fill:url(#SVGID_2_);}
	.st5{fill:url(#SVGID_3_);}
	.st6{fill:url(#SVGID_4_);}
	.st7{fill:url(#SVGID_5_);}
	.st8{fill:url(#SVGID_6_);}
	.st9{fill:url(#SVGID_7_);}
	.st10{fill:url(#SVGID_8_);}
	.st11{opacity:0.09;fill:url(#SVGID_9_);}
	.st12{fill:#FFFFFF;}
	.st13{fill:#F1F1F1;}
</style>
<g>
	<path class="st13" d="M0.01,62.07c0.16-1.84-0.24-4.09,0.2-6.32c0.51-2.61,2.08-3.94,4.84-3.97c2.5-0.02,4.99,0,7.49-0.01
		c3.67,0,6.66-2.75,7.22-6.42c0.38-2.49,0.13-4.98,0.21-7.47c0.03-0.92,0.14-1.83,0.45-2.68c0.78-2.12,2.3-3.11,4.57-3.18
		c2.28-0.08,4.56,0.21,6.83-0.23c2.85-0.55,5.33-3.43,5.39-6.35c0.04-2.07-0.12-4.15,0.22-6.22c0.34-2.05,1.49-3.18,3.59-3.19
		c2.29-0.01,4.58,0.02,6.86-0.01c3.23-0.04,5.67-1.37,7.01-4.43c0.34-0.77,0.52-1.55,0.54-2.41c0.06-1.91-0.1-3.8,0.16-5.72
		c0.31-2.34,1.82-3.36,4.13-3.41c3.12-0.08,6.24-0.07,9.36,0c3.06,0.07,4.72,1.65,4.77,4.7c0.05,2.61,0.25,5.23-0.19,7.84
		c-0.34,2.01-1.5,3.3-3.49,3.69c-2.31,0.46-4.64,0.19-6.96,0.24c-1.09,0.02-2.14,0.11-3.15,0.55c-2.85,1.25-4.15,3.54-4.38,6.53
		c-0.09,1.2-0.01,2.41-0.02,3.62c0,3.24-1.9,5.22-5.14,5.3c-1.87,0.04-3.74,0.03-5.61,0c-4.47-0.05-7.41,3.22-7.46,7.44
		c-0.03,2.17-0.01,4.33,0,6.5c0,4,1.81,5.78,5.76,5.83c2.03,0.03,4.07-0.28,6.08,0.22c3.14,0.77,5.36,3.57,5.37,6.78
		c0.01,2.12,0.01,4.25,0,6.37c-0.01,3.65-3.19,6.81-6.83,6.87c-2.03,0.03-4.05-0.03-6.09,0.12c-2.57,0.2-3.93,2.03-4.2,4.33
		c-0.26,2.25-0.39,4.57,0.13,6.83c0.91,3.96,3.8,6.2,7.86,6.2c1.71,0,3.41-0.06,5.11,0.01c3.36,0.15,4.81,1.75,5.01,4.94
		c0.12,1.86-0.21,3.74,0.25,5.59c0.84,3.37,3.46,5.41,6.94,5.47c2.28,0.04,4.55-0.17,6.84,0.17c2.38,0.36,3.78,1.61,4.04,4
		c0.3,2.77,0.37,5.57-0.01,8.33c-0.48,3.49-2.29,3.82-4.65,3.94c-3.19,0.16-6.4,0.08-9.6,0.02c-2.52-0.05-3.94-1.69-4.03-4.56
		c-0.05-1.33-0.04-2.67,0-4c0.13-4.4-3.44-7.49-7.46-7.42c-1.87,0.03-3.75-0.06-5.61,0.02c-3.7,0.16-5.05-1.39-5.16-5.17
		c-0.05-1.9,0.25-3.82-0.22-5.71c-0.7-2.82-3.56-5.1-6.46-5.12c-1.58-0.01-3.16,0.04-4.74-0.01c-4.06-0.13-5.56-1.83-5.78-5.74
		c-0.08-1.54-0.01-3.08-0.01-4.62c-0.01-4.8-2.8-6.82-7.07-7.09c-2.49-0.16-4.99-0.03-7.48-0.03c-3.62,0-5.4-1.79-5.41-5.43
		C0.01,65.88,0.01,64.17,0.01,62.07z"/>
	<path class="st13" d="M56.92,41.8c0.12-1.76-0.19-3.88,0.24-5.99c0.42-2.06,1.79-3.24,3.91-3.28c2.9-0.06,5.81,0.19,8.7-0.24
		c3.24-0.48,5.31-1.91,5.36-5.66c0.02-1.73,0.1-3.45,0.26-5.18c0.18-1.91,1.83-3.88,3.77-4.11c4.13-0.48,8.28-0.55,12.4,0
		c2.48,0.33,4.18,2.67,4.28,5.54c0.03,0.96,0.04,1.92,0,2.87c-0.13,3.65,2.36,5.5,5.38,6.03c2.56,0.45,5.14,0.27,7.7,0.22
		c2.64-0.05,5.11,2.06,4.93,4.89c-0.17,2.61,0.09,5.25-0.07,7.87c-0.19,3.17-1.08,4.2-3.53,4.89c-0.66,0.19-1.4,0.12-2.1,0.12
		c-2.25,0.01-4.49,0.01-6.74,0c-3.35-0.01-5.73-2.33-5.81-5.68c-0.03-1.33-0.07-2.67,0.01-4c0.16-2.87-2.05-5.61-5.2-5.86
		c-2.86-0.23-5.69-0.3-8.55,0.02c-2.89,0.32-4.55,2.61-4.71,5.36c-0.11,1.95-0.18,3.93,0.01,5.87c0.34,3.33,2.88,6.14,6.73,6.29
		c1.62,0.06,3.24,0.01,4.87,0.01c3.54,0,5.51,1.97,5.6,5.54c0.05,2.03-0.14,4.06,0.22,6.09c0.69,3.84,3.9,6.52,7.53,6.4
		c2.81-0.09,5.64-0.31,8.45,0.2c2.19,0.39,3.71,2.06,3.74,4.31c0.05,3.79,0.07,7.58-0.01,11.37c-0.04,2.1-1.59,4.07-4.98,4.07
		c-2.29,0-4.58-0.07-6.86,0.02c-2.22,0.08-4.28,0.61-5.52,2.75c-0.63,1.08-0.78,2.26-0.82,3.46c-0.05,1.54,0.13,3.11-0.12,4.61
		c-0.45,2.78-2.36,4.34-5.2,4.4c-3.2,0.06-6.41,0.11-9.61-0.01c-3.52-0.14-5.61-2.08-5.56-5.76c0.02-1.28-0.08-2.57-0.15-3.84
		c-0.16-2.86-3.03-4.81-5.83-5.13c-2.36-0.27-4.72-0.22-7.08-0.23c-3.09-0.01-4.84-1.22-5.03-4.29c-0.2-3.37-0.51-6.8,0.32-10.18
		c0.4-1.61,1.36-2.64,2.89-2.9c3.7-0.63,7.44-0.68,11.12,0.02c2.16,0.41,3.7,2.61,3.79,4.82c0.07,1.74,0.03,3.47,0.17,5.22
		c0.25,3.27,2.24,4.96,5.17,5.21c2.96,0.25,5.96,0.28,8.95-0.1c2.1-0.26,3.73-2.04,4.11-4.13c0.44-2.44,0.54-4.94,0.09-7.42
		c-0.63-3.46-3.54-5.92-7.09-6.01c-2.15-0.06-4.32,0.29-6.46-0.21c-1.87-0.44-3.2-2.07-3.46-3.93c-0.26-1.86-0.24-3.73-0.23-5.59
		c0.04-4.87-3.2-8.4-8.2-8.26c-2.04,0.06-4.08-0.06-6.11,0.02c-3.7,0.16-5.61-1.91-5.66-5.64C56.9,45.15,56.92,43.65,56.92,41.8z"/>
	<path class="st13" d="M124.79,53.77c0.54,0,1.08,0.04,1.62-0.01c2.99-0.27,5.94,1.98,6.3,5.28c0.21,1.92,0.2,3.89-0.08,5.84
		c-0.38,2.73-2.38,4.79-5.45,5.07c-1.84,0.17-3.71,0.17-5.58-0.11c-2.52-0.37-4.84-2.4-5-5.65c-0.09-1.85-0.02-3.72,0.13-5.59
		c0.21-2.52,3.52-5.04,5.81-4.85C123.29,53.83,124.04,53.77,124.79,53.77z"/>
</g>
</svg>
