<svg width="134" height="123" viewBox="0 0 134 123" fill="none" xmlns="http://www.w3.org/2000/svg">
<g clip-path="url(#clip0_3_3)">
<path d="M0.50999 62.07C0.66999 60.23 0.26999 57.98 0.70999 55.75C1.21999 53.14 2.78999 51.81 5.54999 51.78C8.04999 51.76 10.54 51.78 13.04 51.77C16.71 51.77 19.7 49.02 20.26 45.35C20.64 42.86 20.39 40.37 20.47 37.88C20.5 36.96 20.61 36.05 20.92 35.2C21.7 33.08 23.22 32.09 25.49 32.02C27.77 31.94 30.05 32.23 32.32 31.79C35.17 31.24 37.65 28.36 37.71 25.44C37.75 23.37 37.59 21.29 37.93 19.22C38.27 17.17 39.42 16.04 41.52 16.03C43.81 16.02 46.1 16.05 48.38 16.02C51.61 15.98 54.05 14.65 55.39 11.59C55.73 10.82 55.91 10.04 55.93 9.18C55.99 7.27 55.83 5.38 56.09 3.46C56.4 1.12 57.91 0.0999952 60.22 0.0499952C63.34 -0.0300048 66.46 -0.0200048 69.58 0.0499952C72.64 0.119995 74.3 1.7 74.35 4.75C74.4 7.36 74.6 9.98 74.16 12.59C73.82 14.6 72.66 15.89 70.67 16.28C68.36 16.74 66.03 16.47 63.71 16.52C62.62 16.54 61.57 16.63 60.56 17.07C57.71 18.32 56.41 20.61 56.18 23.6C56.09 24.8 56.17 26.01 56.16 27.22C56.16 30.46 54.26 32.44 51.02 32.52C49.15 32.56 47.28 32.55 45.41 32.52C40.94 32.47 38 35.74 37.95 39.96C37.92 42.13 37.94 44.29 37.95 46.46C37.95 50.46 39.76 52.24 43.71 52.29C45.74 52.32 47.78 52.01 49.79 52.51C52.93 53.28 55.15 56.08 55.16 59.29C55.17 61.41 55.17 63.54 55.16 65.66C55.15 69.31 51.97 72.47 48.33 72.53C46.3 72.56 44.28 72.5 42.24 72.65C39.67 72.85 38.31 74.68 38.04 76.98C37.78 79.23 37.65 81.55 38.17 83.81C39.08 87.77 41.97 90.01 46.03 90.01C47.74 90.01 49.44 89.95 51.14 90.02C54.5 90.17 55.95 91.77 56.15 94.96C56.27 96.82 55.94 98.7 56.4 100.55C57.24 103.92 59.86 105.96 63.34 106.02C65.62 106.06 67.89 105.85 70.18 106.19C72.56 106.55 73.96 107.8 74.22 110.19C74.52 112.96 74.59 115.76 74.21 118.52C73.73 122.01 71.92 122.34 69.56 122.46C66.37 122.62 63.16 122.54 59.96 122.48C57.44 122.43 56.02 120.79 55.93 117.92C55.88 116.59 55.89 115.25 55.93 113.92C56.06 109.52 52.49 106.43 48.47 106.5C46.6 106.53 44.72 106.44 42.86 106.52C39.16 106.68 37.81 105.13 37.7 101.35C37.65 99.45 37.95 97.53 37.48 95.64C36.78 92.82 33.92 90.54 31.02 90.52C29.44 90.51 27.86 90.56 26.28 90.51C22.22 90.38 20.72 88.68 20.5 84.77C20.42 83.23 20.49 81.69 20.49 80.15C20.48 75.35 17.69 73.33 13.42 73.06C10.93 72.9 8.42999 73.03 5.93999 73.03C2.31999 73.03 0.53999 71.24 0.52999 67.6C0.50999 65.88 0.50999 64.17 0.50999 62.07Z" fill="#333333"/>
<path d="M57.42 41.8C57.54 40.04 57.23 37.92 57.66 35.81C58.08 33.75 59.45 32.57 61.57 32.53C64.47 32.47 67.38 32.72 70.27 32.29C73.51 31.81 75.58 30.38 75.63 26.63C75.65 24.9 75.73 23.18 75.89 21.45C76.07 19.54 77.72 17.57 79.66 17.34C83.79 16.86 87.94 16.79 92.06 17.34C94.54 17.67 96.24 20.01 96.34 22.88C96.37 23.84 96.38 24.8 96.34 25.75C96.21 29.4 98.7 31.25 101.72 31.78C104.28 32.23 106.86 32.05 109.42 32C112.06 31.95 114.53 34.06 114.35 36.89C114.18 39.5 114.44 42.14 114.28 44.76C114.09 47.93 113.2 48.96 110.75 49.65C110.09 49.84 109.35 49.77 108.65 49.77C106.4 49.78 104.16 49.78 101.91 49.77C98.56 49.76 96.18 47.44 96.1 44.09C96.07 42.76 96.03 41.42 96.11 40.09C96.27 37.22 94.06 34.48 90.91 34.23C88.05 34 85.22 33.93 82.36 34.25C79.47 34.57 77.81 36.86 77.65 39.61C77.54 41.56 77.47 43.54 77.66 45.48C78 48.81 80.54 51.62 84.39 51.77C86.01 51.83 87.63 51.78 89.26 51.78C92.8 51.78 94.77 53.75 94.86 57.32C94.91 59.35 94.72 61.38 95.08 63.41C95.77 67.25 98.98 69.93 102.61 69.81C105.42 69.72 108.25 69.5 111.06 70.01C113.25 70.4 114.77 72.07 114.8 74.32C114.85 78.11 114.87 81.9 114.79 85.69C114.75 87.79 113.2 89.76 109.81 89.76C107.52 89.76 105.23 89.69 102.95 89.78C100.73 89.86 98.67 90.39 97.43 92.53C96.8 93.61 96.65 94.79 96.61 95.99C96.56 97.53 96.74 99.1 96.49 100.6C96.04 103.38 94.13 104.94 91.29 105C88.09 105.06 84.88 105.11 81.68 104.99C78.16 104.85 76.07 102.91 76.12 99.23C76.14 97.95 76.04 96.66 75.97 95.39C75.81 92.53 72.94 90.58 70.14 90.26C67.78 89.99 65.42 90.04 63.06 90.03C59.97 90.02 58.22 88.81 58.03 85.74C57.83 82.37 57.52 78.94 58.35 75.56C58.75 73.95 59.71 72.92 61.24 72.66C64.94 72.03 68.68 71.98 72.36 72.68C74.52 73.09 76.06 75.29 76.15 77.5C76.22 79.24 76.18 80.97 76.32 82.72C76.57 85.99 78.56 87.68 81.49 87.93C84.45 88.18 87.45 88.21 90.44 87.83C92.54 87.57 94.17 85.79 94.55 83.7C94.99 81.26 95.09 78.76 94.64 76.28C94.01 72.82 91.1 70.36 87.55 70.27C85.4 70.21 83.23 70.56 81.09 70.06C79.22 69.62 77.89 67.99 77.63 66.13C77.37 64.27 77.39 62.4 77.4 60.54C77.44 55.67 74.2 52.14 69.2 52.28C67.16 52.34 65.12 52.22 63.09 52.3C59.39 52.46 57.48 50.39 57.43 46.66C57.4 45.15 57.42 43.65 57.42 41.8Z" fill="#333333"/>
<path d="M125.29 53.77C125.83 53.77 126.37 53.81 126.91 53.76C129.9 53.49 132.85 55.74 133.21 59.04C133.42 60.96 133.41 62.93 133.13 64.88C132.75 67.61 130.75 69.67 127.68 69.95C125.84 70.12 123.97 70.12 122.1 69.84C119.58 69.47 117.26 67.44 117.1 64.19C117.01 62.34 117.08 60.47 117.23 58.6C117.44 56.08 120.75 53.56 123.04 53.75C123.79 53.83 124.54 53.77 125.29 53.77Z" fill="#333333"/>
</g>
<defs>
<clipPath id="clip0_3_3">
<rect width="132.86" height="122.56" fill="white" transform="translate(0.5)"/>
</clipPath>
</defs>
</svg>
